# xmcd CD database file
#
# Track frame offsets:
#	150
#	18750
#	36440
#	56485
#	74605
#	88777
#	101381
#	114961
#	132969
#	151516
#	171348
#	203208
#
# Disc length: 2910 seconds
#
# Revision: 0
# Processed by: cddbd v1.5.1PL2 Copyright (c) Steve Scherf et al.
# Submitted via: CDex 1.51
#
DISCID=980b5c0c
DTITLE=Col Thomson - Australia's Own Col Thomson
DYEAR=2005
DGENRE=Country
TTITLE0=Australia's Own
TTITLE1=Drought
TTITLE2=Nadine
TTITLE3=Say That You Will
TTITLE4=The Matchbox
TTITLE5=Wondering Troupidore
TTITLE6=The Key
TTITLE7=Cards Of Life
TTITLE8=Memory Lane
TTITLE9=The Man Who Makes The Music
TTITLE10=All You Need Do Is Stand By Me
TTITLE11=Side Winding Rockabilly Bootscooting Son Of A Gun
EXTD=YEAR: 2005
EXTT0=
EXTT1=
EXTT2=
EXTT3=
EXTT4=
EXTT5=
EXTT6=
EXTT7=
EXTT8=
EXTT9=
EXTT10=
EXTT11=
PLAYORDER=
